Coordinates
version=1
nRows=6
nColumns=63
inDegrees=yes

Units are S.I. units (second, meters, Newtons, ...)
If the header above contains a line with 'inDegrees', this indicates whether rotational values are in degrees (yes) or radians (no).

endheader
time	pelvis_tilt	pelvis_list	pelvis_rotation	pelvis_tx	pelvis_ty	pelvis_tz	hip_flexion_r	hip_adduction_r	hip_rotation_r	knee_angle_r	knee_angle_r_beta	ankle_angle_r	subtalar_angle_r	mtp_angle_r	hip_flexion_l	hip_adduction_l	hip_rotation_l	knee_angle_l	knee_angle_l_beta	ankle_angle_l	subtalar_angle_l	mtp_angle_l	L5_S1_Flex_Ext	L5_S1_Lat_Bending	L5_S1_axial_rotation	L4_L5_Flex_Ext	L4_L5_Lat_Bending	L4_L5_axial_rotation	L3_L4_Flex_Ext	L3_L4_Lat_Bending	L3_L4_axial_rotation	L2_L3_Flex_Ext	L2_L3_Lat_Bending	L2_L3_axial_rotation	L1_L2_Flex_Ext	L1_L2_Lat_Bending	L1_L2_axial_rotation	L1_T12_Flex_Ext	L1_T12_Lat_Bending	L1_T12_axial_rotation	Abs_r3	Abs_r2	Abs_r1	Abs_t1	Abs_t2	neck_flexion	neck_bending	neck_rotation	arm_flex_r	arm_add_r	arm_rot_r	elbow_flex_r	pro_sup_r	wrist_flex_r	wrist_dev_r	arm_flex_l	arm_add_l	arm_rot_l	elbow_flex_l	pro_sup_l	wrist_flex_l	wrist_dev_l
      0.00000000	      4.30063158	    -20.62585823	    102.17064440	      0.23353440	      0.32133123	      0.68466358	     13.08720873	      0.70556393	     -7.65665155	      8.91030000	      0.15551407	     22.35013879	     11.68651609	      0.00000000	     11.48184695	     -2.78871158	     -0.06265791	      1.09002126	      0.01902446	     25.83597759	     -6.73821048	      0.00000000	      0.36570687	      0.19479774	      1.68760622	      0.67915423	      0.25908099	      1.79308161	      0.60081982	      0.47363121	      1.79308161	      0.41796638	      0.47363121	      1.47665544	      0.33959540	      0.39723154	      1.37118005	      0.20896491	      0.30174169	      1.26570466	      2.61220762	      2.20359094	      9.38595951	      0.00000000	      0.00000000	     28.07111281	     -5.87123566	    -12.37596037	      4.55003795	    -13.10351610	     50.15328610	     58.45329994	      5.28234484	     -3.07567951	     14.63320523	     15.10296926	     -9.60032495	     67.97904334	     55.36699864	     43.55782631	     -5.35972658	      3.82960330
      0.01666667	      4.38903930	    -20.51089481	    103.28440296	      0.23233339	      0.32190519	      0.68266410	     12.35145587	      0.78120255	     -5.78534641	      7.87050864	      0.13736629	     22.09732387	      8.88944828	      0.00000000	     11.32771241	     -2.69156616	      2.62942188	      1.05739080	      0.01845495	     24.19888278	     -9.71294038	      0.00000000	      0.33958857	      0.19091426	      1.40831863	      0.63064994	      0.25391596	      1.49633854	      0.55791007	      0.46418893	      1.49633854	      0.38811578	      0.46418893	      1.23227880	      0.31534195	      0.38931235	      1.14425888	      0.19404091	      0.29572618	      1.05623897	      2.42564721	      2.15966026	      7.83264570	      0.00000000	      0.00000000	     28.03329135	     -4.00385521	    -11.05285456	      5.97747154	    -12.61429881	     53.26392612	     56.18015980	      6.78945310	     -4.70860227	     12.71179053	     13.12711696	     -8.63857405	     63.14703975	     53.35582935	     50.51341655	     -4.27041681	      8.11446692
      0.03333333	      4.40556440	    -20.39317237	    104.18269953	      0.23149812	      0.32238886	      0.68123994	     11.68997189	      0.83399486	     -3.69896819	      6.94537433	      0.12121965	     21.58592455	      5.76567784	      0.00000000	     11.20193039	     -2.57575248	      4.20529022	      1.03027400	      0.01798167	     23.00489388	    -11.37258979	      0.00000000	      0.31595489	      0.18044807	      1.20974165	      0.58675983	      0.23999593	      1.28535050	      0.51908229	      0.43874144	      1.28535050	      0.36110484	      0.43874144	      1.05852394	      0.29339571	      0.36796971	      0.98291509	      0.18053662	      0.27951406	      0.90730624	      2.25683418	      2.04126467	      6.72822014	      0.00000000	      0.00000000	     28.00240501	     -2.86251111	    -10.34183578	      7.10173479	    -12.04883982	     55.82083237	     54.19332836	      7.11848747	     -5.65835807	     11.12058359	     12.19603987	     -7.92957354	     60.96367996	     51.46138041	     56.16085607	     -3.64920890	      9.08936767
      0.05000000	      4.35959845	    -20.27436947	    104.75112976	      0.23086795	      0.32280476	      0.68018267	     11.23499604	      0.76352152	     -3.06399428	      6.43875840	      0.11237753	     21.38766008	      4.78629393	      0.00000000	     11.06719601	     -2.46859618	      4.83661207	      1.02514831	      0.01789221	     22.32128685	    -11.67019210	      0.00000000	      0.29948621	      0.16660370	      1.11574796	      0.55617584	      0.22158293	      1.18548221	      0.49202589	      0.40508025	      1.18548221	      0.34228279	      0.40508025	      0.97627947	      0.27810289	      0.33973827	      0.90654522	      0.17112642	      0.25806914	      0.83681097	      2.13920005	      1.88465442	      6.20545544	      0.00000000	      0.00000000	     27.98500399	     -2.35321872	    -10.24016506	      7.94491538	    -11.58429135	     58.04095432	     52.47474988	      7.10601659	     -5.52791290	      9.45117518	     12.07072339	     -7.45440830	     61.34245811	     49.72339293	     58.80950858	     -4.42911511	      7.84483998
      0.06666667	      4.31842663	    -20.13471371	    105.24013231	      0.23018608	      0.32314667	      0.67938360	     10.81642706	      0.69910230	     -2.62087913	      6.03517675	      0.10533371	     21.20563997	      4.09306861	      0.00000000	     10.92009068	     -2.36125855	      5.27818379	      0.98703387	      0.01722699	     21.90485145	    -11.90599690	      0.00000000	      0.28784502	      0.15661091	      1.04012252	      0.53455698	      0.20829251	      1.10513018	      0.47290058	      0.38078377	      1.10513018	      0.32897807	      0.38078377	      0.91010721	      0.26729288	      0.31936097	      0.84509955	      0.16447464	      0.24259030	      0.78009189	      2.05604817	      1.77161394	      5.78484942	      0.00000000	      0.00000000	     27.98399551	     -2.38870294	    -10.60986298	      8.61009329	    -11.18255308	     59.92120331	     51.05755728	      6.82710805	     -4.95020447	      8.18996306	     12.27949084	     -7.13953209	     62.62978532	     48.12080688	     61.45648149	     -5.22971998	      6.00030866
      0.08333333	      4.29495882	    -20.05032820	    105.42422448	      0.22977749	      0.32338393	      0.67870711	     10.52321874	      0.73350395	     -1.45751276	      5.68211570	      0.09917163	     20.71316277	      2.38861515	      0.00000000	     10.81206498	     -2.30762280	      5.59034717	      0.95541050	      0.01667506	     21.51600788	    -12.34819001	      0.00000000	      0.29246651	      0.15208026	      1.00842890	      0.54313955	      0.20226674	      1.07145570	      0.48049323	      0.36976794	      1.07145570	      0.33425997	      0.36976794	      0.88237528	      0.27158440	      0.31012206	      0.81934848	      0.16711536	      0.23557232	      0.75632167	      2.08905902	      1.72036227	      5.60857899	      0.00000000	      0.00000000	     27.99865274	     -2.61584199	    -10.70214415	      9.17926087	    -10.86463526	     61.93154834	     49.88489171	      5.58039645	     -3.78123120	      6.35142412	     12.18318373	     -6.79189700	     63.24274318	     46.80021176	     65.50948123	     -6.62059450	      4.23773097
